<?xml version="1.0" encoding="utf-8"?>
<!-- Generator: Adobe Illustrator 15.1.0, SVG Export Plug-In . SVG Version: 6.00 Build 0)  -->
<!DOCTYPE svg PUBLIC "-//W3C//DTD SVG 1.1//EN" "http://www.w3.org/Graphics/SVG/1.1/DTD/svg11.dtd">
<svg version="1.1" id="Layer_1" xmlns="http://www.w3.org/2000/svg" xmlns:xlink="http://www.w3.org/1999/xlink" x="0px" y="0px"
	 width="120px" height="45px" viewBox="0 0 120 45" style="enable-background:new 0 0 120 45;" xml:space="preserve">
<style type="text/css">
<![CDATA[
	.st0{fill:#8DBE40;}
	.st1{fill:#010101;}
	.st2{fill:#046937;}
	.st3{fill:#069046;}
	.st4{fill:#3BAC4A;}
	.st5{fill:#3D494B;}
]]>
</style>
<g>
	<path class="st5" d="M2.2,15.7V3.2h8v1.9H4.5v3.1h5.1v1.9H4.5v3.7h6.2v1.9H2.2z"/>
	<path class="st5" d="M15.7,9.2l2-2.9H20l-3.2,4.5c0.7,0.8,1.3,1.7,1.9,2.5c0.6,0.8,1.1,1.6,1.5,2.4h-2.4c-0.1-0.2-0.3-0.5-0.4-0.7
		s-0.4-0.5-0.6-0.8c-0.2-0.3-0.4-0.6-0.6-0.8c-0.2-0.3-0.4-0.5-0.6-0.8c-0.4,0.5-0.8,1-1.2,1.6c-0.4,0.6-0.7,1.1-1,1.6h-2.2
		c0.2-0.4,0.4-0.7,0.7-1.1c0.3-0.4,0.5-0.8,0.8-1.2c0.3-0.4,0.6-0.8,0.9-1.3c0.3-0.4,0.6-0.8,0.9-1.2l-3.2-4.6h2.4L15.7,9.2z"/>
	<path class="st5" d="M29.9,11c0,0.7-0.1,1.4-0.3,2c-0.2,0.6-0.5,1.1-0.8,1.5c-0.3,0.4-0.8,0.8-1.3,1s-1.1,0.4-1.8,0.4
		c-0.4,0-0.9-0.1-1.2-0.2c-0.4-0.1-0.7-0.2-0.9-0.4V19h-2.2V6.6c0.4-0.1,1-0.2,1.6-0.3c0.6-0.1,1.3-0.2,2.1-0.2c0.7,0,1.4,0.1,2,0.3
		c0.6,0.2,1.1,0.6,1.5,1s0.7,0.9,1,1.5C29.8,9.6,29.9,10.3,29.9,11z M27.7,11c0-1-0.2-1.7-0.7-2.3C26.6,8.2,25.9,8,24.9,8
		c-0.2,0-0.4,0-0.6,0c-0.2,0-0.4,0.1-0.7,0.1v5.4c0.2,0.1,0.4,0.3,0.8,0.4c0.3,0.1,0.7,0.2,1,0.2c0.8,0,1.4-0.3,1.7-0.8
		C27.5,12.7,27.7,12,27.7,11z"/>
	<path class="st5" d="M35,15.9c-0.6,0-1.2-0.1-1.6-0.2c-0.4-0.1-0.8-0.3-1-0.6s-0.4-0.6-0.5-0.9c-0.1-0.4-0.2-0.8-0.2-1.3V2.1
		l2.2-0.4v10.8c0,0.3,0,0.5,0.1,0.7c0,0.2,0.1,0.3,0.2,0.5s0.3,0.2,0.4,0.3c0.2,0.1,0.4,0.1,0.7,0.2L35,15.9z"/>
	<path class="st5" d="M45.2,11c0,0.7-0.1,1.4-0.3,2c-0.2,0.6-0.5,1.1-0.9,1.6c-0.4,0.4-0.9,0.8-1.4,1c-0.6,0.2-1.2,0.4-1.8,0.4
		s-1.3-0.1-1.8-0.4c-0.6-0.2-1-0.6-1.4-1c-0.4-0.4-0.7-1-0.9-1.6c-0.2-0.6-0.3-1.3-0.3-2s0.1-1.4,0.3-2c0.2-0.6,0.5-1.1,0.9-1.6
		c0.4-0.4,0.9-0.8,1.4-1c0.6-0.2,1.2-0.4,1.8-0.4s1.3,0.1,1.8,0.4c0.6,0.2,1,0.6,1.4,1c0.4,0.4,0.7,1,0.9,1.6
		C45.1,9.6,45.2,10.2,45.2,11z M42.9,11c0-0.9-0.2-1.7-0.6-2.2c-0.4-0.5-1-0.8-1.7-0.8c-0.7,0-1.3,0.3-1.7,0.8
		c-0.4,0.5-0.6,1.3-0.6,2.2c0,0.9,0.2,1.7,0.6,2.3c0.4,0.6,1,0.8,1.7,0.8c0.7,0,1.3-0.3,1.7-0.8C42.7,12.7,42.9,11.9,42.9,11z"/>
	<path class="st5" d="M52.4,8.3c-0.2-0.1-0.4-0.1-0.7-0.2C51.3,8,50.9,8,50.5,8C50.3,8,50,8,49.7,8s-0.5,0.1-0.6,0.1v7.5H47v-9
		c0.4-0.2,0.9-0.3,1.6-0.4c0.6-0.1,1.3-0.2,2.1-0.2c0.1,0,0.3,0,0.5,0s0.4,0,0.6,0.1c0.2,0,0.4,0.1,0.6,0.1c0.2,0,0.3,0.1,0.4,0.1
		L52.4,8.3z"/>
	<path class="st5" d="M53.3,11c0-0.8,0.1-1.6,0.4-2.2s0.6-1.1,1-1.6C55,6.9,55.5,6.6,56,6.4c0.5-0.2,1.1-0.3,1.6-0.3
		c1.3,0,2.3,0.4,3,1.2c0.7,0.8,1.1,2,1.1,3.6c0,0.1,0,0.3,0,0.4c0,0.1,0,0.3,0,0.4h-6.2c0.1,0.8,0.3,1.3,0.8,1.8
		c0.5,0.4,1.2,0.6,2.1,0.6c0.5,0,1,0,1.4-0.1s0.8-0.2,1-0.3l0.3,1.8c-0.1,0.1-0.3,0.1-0.5,0.2c-0.2,0.1-0.4,0.1-0.7,0.2
		s-0.6,0.1-0.9,0.1c-0.3,0-0.6,0.1-1,0.1c-0.8,0-1.5-0.1-2.2-0.4c-0.6-0.2-1.1-0.6-1.5-1c-0.4-0.4-0.7-1-0.9-1.5S53.3,11.8,53.3,11z
		 M59.6,10.1c0-0.3,0-0.6-0.1-0.9c-0.1-0.3-0.2-0.5-0.4-0.7c-0.2-0.2-0.4-0.4-0.6-0.5c-0.2-0.1-0.5-0.2-0.8-0.2
		c-0.3,0-0.6,0.1-0.9,0.2s-0.5,0.3-0.6,0.5C56,8.8,55.8,9,55.8,9.3c-0.1,0.3-0.2,0.5-0.2,0.8H59.6z"/>
</g>
<g>
	<path class="st1" d="M27.3,43.2c-0.9-0.9-1.4-2-1.4-3.3V24.2c1.7,0,2.9,0.5,3.9,1.4c0.9,0.9,1.4,2,1.4,3.3v15.8
		C29.5,44.6,28.2,44.1,27.3,43.2"/>
</g>
<g>
	<path class="st1" d="M60.1,44.6c-3.1,0-5.6-1.1-7.7-3.4c-2.1,2.3-4.7,3.4-7.7,3.4c-2.8,0-5.3-1-7.3-3s-3-4.4-3-7.2V24.2
		c1.7,0,2.9,0.5,3.9,1.4c0.9,0.9,1.4,2,1.4,3.3v5.6c0,1.4,0.5,2.6,1.5,3.6c1,1,2.2,1.5,3.6,1.5c1.4,0,2.6-0.5,3.6-1.5
		c1-1,1.5-2.2,1.5-3.6V24.2c1.7,0,2.9,0.5,3.9,1.4c0.9,0.9,1.4,2,1.4,3.3v5.6c0,1.4,0.5,2.6,1.5,3.6c1,1,2.2,1.5,3.6,1.5
		c1.4,0,2.6-0.5,3.6-1.5c1-1,1.5-2.2,1.5-3.6v-5.6c0-1.3,0.5-2.4,1.4-3.3c0.9-0.9,2.2-1.4,3.9-1.4v10.2c0,2.8-1,5.2-3,7.2
		C65.3,43.6,62.9,44.6,60.1,44.6"/>
</g>
<g>
	<path class="st1" d="M75,43.2c-0.9-0.9-1.4-2-1.4-3.3V24.2c1.7,0,3,0.5,3.9,1.4c0.9,0.9,1.4,2,1.4,3.3v15.8
		C77.2,44.6,75.9,44.1,75,43.2"/>
</g>
<g>
	<path class="st1" d="M97.3,27.9c-0.9,0.9-1.9,1.3-3.1,1.3h-1.8c-1.4,0-2.6,0.5-3.6,1.5c-1,1-1.5,2.2-1.5,3.6v5.6
		c0,1.3-0.5,2.4-1.4,3.3c-0.9,0.9-2.2,1.4-3.9,1.4V34.3c0-2.8,1-5.2,3-7.2c2-2,4.4-3,7.3-3h6.3C98.6,25.8,98.2,27,97.3,27.9"/>
</g>
<g>
	<path class="st1" d="M109,44.6c-2.8,0-5.3-1-7.3-3c-2-2-3-4.4-3-7.2c0-2.8,1-5.2,3-7.2c2-2,4.4-3,7.3-3s5.3,1,7.3,3
		c2,2,3,4.4,3,7.2v10.2H109z M114,34.4c0-1.4-0.5-2.6-1.5-3.7c-1-1-2.2-1.5-3.6-1.5s-2.6,0.5-3.6,1.5c-1,1-1.5,2.2-1.5,3.7
		c0,1.4,0.5,2.6,1.5,3.6c1,1,2.2,1.5,3.6,1.5h5.1V34.4z"/>
</g>
<g>
	<path class="st4" d="M21.7,25.8L21.7,25.8c-0.4-0.5-1-1-1.7-1.3c-0.1,1.5-0.9,2.9-2.2,3.6l0,0L16,29.3h0l0,0h2.2
		c1.2,0,2.3,0.4,3.2,1.3c0.2,0.2,0.4,0.4,0.5,0.6c0.5-0.7,0.8-1.6,0.8-2.6C22.7,27.6,22.3,26.6,21.7,25.8"/>
</g>
<g>
	<path class="st0" d="M20,24.5L20,24.5L20,24.5 M18.1,24.2H2.6c0,1.6,0.4,2.9,1.3,3.8c0.9,0.9,2,1.3,3.2,1.3H16l1.9-1.1l0,0
		c1.2-0.8,2.1-2.1,2.2-3.6c-0.4-0.2-0.9-0.3-1.4-0.4C18.4,24.2,18.3,24.2,18.1,24.2"/>
</g>
<g>
	<path class="st4" d="M21.4,40.8c-0.9-0.9-2-1.3-3.2-1.3H9.3l-0.2,0.1v0l-1.7,1v0c-1.2,0.8-2.1,2.1-2.2,3.6c0.4,0.2,0.9,0.3,1.4,0.3
		c0.2,0,0.4,0,0.6,0h15.5C22.7,42.9,22.3,41.7,21.4,40.8"/>
</g>
<g>
	<path class="st2" d="M21.9,31.3L21.9,31.3c-0.2-0.2-0.3-0.4-0.5-0.6c-0.9-0.9-2-1.3-3.2-1.3H16L4.8,36.2l0,0
		c-0.5,0.3-1,0.7-1.3,1.2c0.2,0.2,0.3,0.4,0.5,0.6c0.9,0.9,2,1.3,3.2,1.3h1.6v0h0.6l11.2-6.9l0,0C21.1,32.2,21.5,31.8,21.9,31.3"/>
</g>
<g>
	<path class="st3" d="M8.7,39.4H7.1c-1.2,0-2.3-0.4-3.2-1.3c-0.2-0.2-0.4-0.4-0.5-0.6c-0.5,0.7-0.8,1.6-0.8,2.6c0,1.1,0.4,2.1,1,2.9
		c0.4,0.5,1,1,1.7,1.3v0c0-0.1,0-0.2,0-0.3c0,0,0-0.1,0-0.1c0-0.1,0-0.1,0-0.2c0,0,0-0.1,0-0.1c0,0,0-0.1,0-0.1c0,0,0-0.1,0-0.1
		c0,0,0-0.1,0-0.1c0,0,0-0.1,0-0.1c0,0,0-0.1,0-0.1c0-0.1,0-0.1,0.1-0.2c0,0,0-0.1,0-0.1c0-0.1,0-0.1,0.1-0.2c0,0,0-0.1,0-0.1
		c0-0.1,0.1-0.1,0.1-0.2c0,0,0,0,0-0.1C6,42.1,6,42,6,42c0,0,0,0,0-0.1c0-0.1,0.1-0.1,0.1-0.2c0,0,0,0,0,0c0-0.1,0.1-0.1,0.1-0.2
		c0,0,0,0,0,0c0-0.1,0.1-0.1,0.1-0.2c0,0,0,0,0,0c0.1-0.1,0.1-0.1,0.2-0.2c0,0,0,0,0,0C6.8,41.1,6.9,41,6.9,41l0,0
		C7,40.9,7,40.9,7.1,40.8l0,0c0.1-0.1,0.2-0.2,0.4-0.2v0l1.7-1v0l0.2-0.1L8.7,39.4L8.7,39.4z"/>
</g>
</svg>
