<?xml version="1.0" encoding="utf-8"?>
<!-- Generator: Adobe Illustrator 15.1.0, SVG Export Plug-In . SVG Version: 6.00 Build 0)  -->
<!DOCTYPE svg PUBLIC "-//W3C//DTD SVG 1.1//EN" "http://www.w3.org/Graphics/SVG/1.1/DTD/svg11.dtd">
<svg version="1.1" id="Layer_1" xmlns="http://www.w3.org/2000/svg" xmlns:xlink="http://www.w3.org/1999/xlink" x="0px" y="0px"
	 width="168px" height="30px" viewBox="0 0 168 30" enable-background="new 0 0 168 30" xml:space="preserve">
<path fill="#010101" d="M34.942,26.914c-1.291-1.291-1.936-2.828-1.936-4.615V0c2.354,0,4.176,0.645,5.465,1.935
	c1.289,1.289,1.934,2.828,1.934,4.615v22.297C38.053,28.848,36.231,28.203,34.942,26.914"/>
<path fill="#010101" d="M81.323,28.848c-4.344,0-7.965-1.617-10.859-4.854c-2.965,3.236-6.608,4.854-10.928,4.854
	c-4.006,0-7.434-1.402-10.285-4.207c-2.85-2.807-4.276-6.199-4.276-10.182V0c2.352,0,4.174,0.645,5.465,1.935
	c1.289,1.289,1.934,2.828,1.934,4.615v7.908c0,1.991,0.695,3.704,2.086,5.141c1.392,1.438,3.084,2.156,5.076,2.156
	c1.99,0,3.685-0.719,5.09-2.156c1.402-1.438,2.103-3.15,2.103-5.141V0c2.354,0,4.174,0.645,5.465,1.935
	c1.289,1.289,1.934,2.828,1.934,4.615v7.908c0,1.991,0.701,3.704,2.105,5.141c1.402,1.438,3.098,2.156,5.09,2.156
	c1.99,0,3.683-0.719,5.076-2.156c1.391-1.438,2.088-3.15,2.088-5.141V6.55c0-1.787,0.645-3.326,1.934-4.615
	C91.709,0.645,93.529,0,95.883,0v14.458c0,4.004-1.424,7.405-4.275,10.198C88.758,27.451,85.33,28.848,81.323,28.848"/>
<path fill="#010101" d="M102.395,26.914c-1.289-1.291-1.934-2.828-1.934-4.615V0c2.354,0,4.174,0.645,5.463,1.935
	c1.291,1.289,1.936,2.828,1.936,4.615v22.297C105.506,28.848,103.686,28.203,102.395,26.914"/>
<path fill="#010101" d="M134.051,5.261c-1.223,1.221-2.693,1.833-4.412,1.833h-2.613c-1.992,0-3.689,0.718-5.092,2.154
	s-2.104,3.151-2.104,5.142v7.909c0,1.787-0.645,3.326-1.934,4.615c-1.291,1.289-3.113,1.934-5.465,1.934V14.39
	c0-3.981,1.43-7.376,4.293-10.181C119.586,1.404,123.02,0,127.025,0h8.857C135.883,2.286,135.271,4.039,134.051,5.261"/>
<path fill="#010101" d="M150.477,28.848c-4.004,0-7.438-1.402-10.301-4.207c-2.861-2.807-4.293-6.199-4.293-10.182
	c0-3.982,1.432-7.387,4.293-10.215C143.039,1.415,146.473,0,150.477,0s7.443,1.414,10.316,4.243
	c2.873,2.828,4.311,6.232,4.311,10.215v14.389H150.477z M157.639,14.458c0-2.014-0.693-3.745-2.076-5.193
	c-1.383-1.447-3.084-2.172-5.104-2.172c-2.018,0-3.719,0.725-5.102,2.172c-1.385,1.448-2.076,3.18-2.076,5.193
	c0,1.991,0.697,3.704,2.094,5.141c1.393,1.438,3.09,2.154,5.084,2.154h7.18V14.458z"/>
<path fill="#3BAC4A" d="M26.971,2.321h-0.002c-0.635-0.765-1.445-1.378-2.371-1.778c-0.113,2.161-1.303,4.039-3.047,5.102
	l0.004,0.005l-2.623,1.612h0.004l-0.004,0.004h3.074c1.754,0,3.264,0.632,4.529,1.896c0.272,0.273,0.514,0.571,0.729,0.893
	c0.734-1.038,1.17-2.305,1.17-3.674C28.434,4.837,27.885,3.421,26.971,2.321"/>
<path fill="#8DBE40" d="M24.598,0.542L24.598,0.542L24.598,0.542 M21.885,0H0.004c0,2.308,0.633,4.097,1.897,5.361
	C3.167,6.627,4.678,7.26,6.432,7.26h12.5l2.623-1.611l-0.004-0.005c1.744-1.062,2.934-2.938,3.047-5.101
	c-0.602-0.261-1.25-0.434-1.93-0.498C22.412,0.017,22.153,0,21.885,0"/>
<path fill="#3BAC4A" d="M26.536,23.486c-1.266-1.266-2.775-1.898-4.529-1.898H9.5l-0.227,0.139L6.89,23.193
	c-1.747,1.064-2.938,2.947-3.045,5.115c0.599,0.26,1.248,0.432,1.929,0.494c0.254,0.029,0.514,0.045,0.78,0.045h21.88
	C28.434,26.539,27.802,24.752,26.536,23.486"/>
<path fill="#046937" d="M27.264,10.054L27.264,10.054c-0.215-0.32-0.457-0.619-0.729-0.892c-1.265-1.266-2.775-1.898-4.529-1.898
	h-3.074L3.057,17.025l0.004,0.006c-0.744,0.453-1.387,1.057-1.889,1.766c0.215,0.32,0.457,0.621,0.729,0.895
	c1.265,1.264,2.777,1.896,4.531,1.896h2.262H9.5l15.879-9.764l-0.002-0.006C26.121,11.367,26.762,10.762,27.264,10.054"/>
<path fill="#069046" d="M8.694,21.588H6.432c-1.754,0-3.265-0.633-4.531-1.896c-0.271-0.273-0.514-0.574-0.728-0.895
	c-0.735,1.037-1.17,2.303-1.17,3.67c0,1.543,0.55,2.959,1.464,4.061c0.637,0.768,1.45,1.381,2.377,1.781v-0.014
	c0.008-0.129,0.018-0.256,0.032-0.381c0.006-0.051,0.013-0.098,0.021-0.146c0.01-0.08,0.02-0.16,0.035-0.24
	c0.01-0.061,0.024-0.117,0.035-0.176c0.014-0.068,0.028-0.137,0.043-0.203c0.016-0.064,0.034-0.129,0.051-0.193
	c0.018-0.057,0.031-0.117,0.049-0.176c0.022-0.068,0.045-0.135,0.068-0.205c0.018-0.049,0.036-0.104,0.053-0.152
	c0.027-0.074,0.057-0.145,0.086-0.215c0.018-0.045,0.035-0.09,0.055-0.133C4.405,26,4.44,25.924,4.477,25.852
	c0.018-0.037,0.035-0.076,0.055-0.113c0.039-0.078,0.082-0.152,0.123-0.23c0.019-0.029,0.035-0.063,0.055-0.094
	c0.046-0.078,0.095-0.156,0.144-0.234c0.016-0.023,0.033-0.049,0.049-0.074c0.055-0.08,0.109-0.16,0.166-0.238
	c0.016-0.021,0.031-0.041,0.045-0.059c0.062-0.082,0.125-0.16,0.189-0.24c0.014-0.016,0.026-0.029,0.039-0.045
	c0.069-0.08,0.139-0.16,0.211-0.236c0.01-0.012,0.02-0.023,0.03-0.033c0.076-0.08,0.154-0.158,0.234-0.232
	c0.006-0.01,0.014-0.016,0.022-0.021c0.084-0.08,0.167-0.156,0.255-0.229c0.006-0.004,0.01-0.008,0.014-0.014
	c0.09-0.074,0.184-0.148,0.277-0.219c0.002-0.002,0.004-0.002,0.006-0.004c0.16-0.121,0.326-0.236,0.498-0.342l0,0l2.385-1.467
	l0.227-0.139H8.694z"/>
</svg>
